<svg width="807" height="183" viewBox="0 0 807 183" fill="none" xmlns="http://www.w3.org/2000/svg">
<path d="M14.1 145V40H57.3C66.6 40 74.55 41.5 81.15 44.5C87.85 47.5 93 51.8 96.6 57.4C100.2 63 102 69.65 102 77.35C102 85.05 100.2 91.7 96.6 97.3C93 102.9 87.85 107.2 81.15 110.2C74.55 113.2 66.6 114.7 57.3 114.7H24.9L33.6 105.55V145H14.1ZM33.6 107.65L24.9 98.2H56.4C65 98.2 71.45 96.4 75.75 92.8C80.15 89.1 82.35 83.95 82.35 77.35C82.35 70.65 80.15 65.5 75.75 61.9C71.45 58.3 65 56.5 56.4 56.5H24.9L33.6 46.9V107.65ZM173.638 146.5C165.438 146.5 157.888 145.15 150.988 142.45C144.088 139.75 138.088 136 132.988 131.2C127.888 126.3 123.938 120.6 121.138 114.1C118.338 107.5 116.938 100.3 116.938 92.5C116.938 84.7 118.338 77.55 121.138 71.05C123.938 64.45 127.888 58.75 132.988 53.95C138.088 49.05 144.088 45.25 150.988 42.55C157.888 39.85 165.388 38.5 173.488 38.5C181.688 38.5 189.188 39.85 195.988 42.55C202.888 45.25 208.888 49.05 213.988 53.95C219.088 58.75 223.038 64.45 225.838 71.05C228.638 77.55 230.038 84.7 230.038 92.5C230.038 100.3 228.638 107.5 225.838 114.1C223.038 120.7 219.088 126.4 213.988 131.2C208.888 136 202.888 139.75 195.988 142.45C189.188 145.15 181.738 146.5 173.638 146.5ZM173.488 129.4C178.788 129.4 183.688 128.5 188.188 126.7C192.688 124.9 196.588 122.35 199.888 119.05C203.188 115.65 205.738 111.75 207.538 107.35C209.438 102.85 210.388 97.9 210.388 92.5C210.388 87.1 209.438 82.2 207.538 77.8C205.738 73.3 203.188 69.4 199.888 66.1C196.588 62.7 192.688 60.1 188.188 58.3C183.688 56.5 178.788 55.6 173.488 55.6C168.188 55.6 163.288 56.5 158.788 58.3C154.388 60.1 150.488 62.7 147.088 66.1C143.788 69.4 141.188 73.3 139.288 77.8C137.488 82.2 136.588 87.1 136.588 92.5C136.588 97.8 137.488 102.7 139.288 107.2C141.188 111.7 143.788 115.65 147.088 119.05C150.388 122.35 154.288 124.9 158.788 126.7C163.288 128.5 168.188 129.4 173.488 129.4Z" fill="black"/>
<path d="M383.4 145V56.5H348.6V40H437.7V56.5H402.9V145H383.4ZM497.08 146.5C482.68 146.5 471.38 142.45 463.18 134.35C455.08 126.25 451.03 114.55 451.03 99.25V40H470.53V98.5C470.53 109.3 472.83 117.15 477.43 122.05C482.13 126.95 488.73 129.4 497.23 129.4C505.73 129.4 512.28 126.95 516.88 122.05C521.48 117.15 523.78 109.3 523.78 98.5V40H542.98V99.25C542.98 114.55 538.88 126.25 530.68 134.35C522.58 142.45 511.38 146.5 497.08 146.5ZM571.789 145V40H587.839L653.689 120.85H645.739V40H665.089V145H649.039L583.189 64.15H591.139V145H571.789ZM743.925 146.5C735.725 146.5 728.175 145.15 721.275 142.45C714.375 139.75 708.375 136 703.275 131.2C698.175 126.3 694.225 120.6 691.425 114.1C688.625 107.5 687.225 100.3 687.225 92.5C687.225 84.7 688.625 77.55 691.425 71.05C694.225 64.45 698.175 58.75 703.275 53.95C708.375 49.05 714.375 45.25 721.275 42.55C728.175 39.85 735.675 38.5 743.775 38.5C751.975 38.5 759.475 39.85 766.275 42.55C773.175 45.25 779.175 49.05 784.275 53.95C789.375 58.75 793.325 64.45 796.125 71.05C798.925 77.55 800.325 84.7 800.325 92.5C800.325 100.3 798.925 107.5 796.125 114.1C793.325 120.7 789.375 126.4 784.275 131.2C779.175 136 773.175 139.75 766.275 142.45C759.475 145.15 752.025 146.5 743.925 146.5ZM743.775 129.4C749.075 129.4 753.975 128.5 758.475 126.7C762.975 124.9 766.875 122.35 770.175 119.05C773.475 115.65 776.025 111.75 777.825 107.35C779.725 102.85 780.675 97.9 780.675 92.5C780.675 87.1 779.725 82.2 777.825 77.8C776.025 73.3 773.475 69.4 770.175 66.1C766.875 62.7 762.975 60.1 758.475 58.3C753.975 56.5 749.075 55.6 743.775 55.6C738.475 55.6 733.575 56.5 729.075 58.3C724.675 60.1 720.775 62.7 717.375 66.1C714.075 69.4 711.475 73.3 709.575 77.8C707.775 82.2 706.875 87.1 706.875 92.5C706.875 97.8 707.775 102.7 709.575 107.2C711.475 111.7 714.075 115.65 717.375 119.05C720.675 122.35 724.575 124.9 729.075 126.7C733.575 128.5 738.475 129.4 743.775 129.4Z" fill="black"/>
<path fill-rule="evenodd" clip-rule="evenodd" d="M247 38V144.5H338L311.5 110.5C318.667 106.833 333.5 95.2 335.5 78C338 56.5 318 38 305.5 38C302.839 38 298.609 38.0354 293.526 38.0779C279.503 38.1953 258.987 38.367 247 38ZM266.5 53.5V129H307L288.5 104C298 101.5 317.2 92.8 318 78C318.8 63.2 305.333 55.5 298.5 53.5H266.5Z" fill="black"/>
</svg>
