<svg width="807" height="232" viewBox="0 0 807 232" fill="none" xmlns="http://www.w3.org/2000/svg">
<path d="M112.579 222.32C110.445 222.32 108.405 222 106.459 221.36C104.512 220.693 102.979 219.84 101.859 218.8L103.339 215.68C104.405 216.613 105.765 217.387 107.419 218C109.072 218.613 110.792 218.92 112.579 218.92C114.205 218.92 115.525 218.733 116.539 218.36C117.552 217.987 118.299 217.48 118.779 216.84C119.259 216.173 119.499 215.427 119.499 214.6C119.499 213.64 119.179 212.867 118.539 212.28C117.925 211.693 117.112 211.227 116.099 210.88C115.112 210.507 114.019 210.187 112.819 209.92C111.619 209.653 110.405 209.347 109.179 209C107.979 208.627 106.872 208.16 105.859 207.6C104.872 207.04 104.072 206.293 103.459 205.36C102.845 204.4 102.539 203.173 102.539 201.68C102.539 200.24 102.912 198.92 103.659 197.72C104.432 196.493 105.605 195.52 107.179 194.8C108.779 194.053 110.805 193.68 113.259 193.68C114.885 193.68 116.499 193.893 118.099 194.32C119.699 194.747 121.085 195.36 122.259 196.16L120.939 199.36C119.739 198.56 118.472 197.987 117.139 197.64C115.805 197.267 114.512 197.08 113.259 197.08C111.685 197.08 110.392 197.28 109.379 197.68C108.365 198.08 107.619 198.613 107.139 199.28C106.685 199.947 106.459 200.693 106.459 201.52C106.459 202.507 106.765 203.293 107.379 203.88C108.019 204.467 108.832 204.933 109.819 205.28C110.832 205.627 111.939 205.947 113.139 206.24C114.339 206.507 115.539 206.813 116.739 207.16C117.965 207.507 119.072 207.96 120.059 208.52C121.072 209.08 121.885 209.827 122.499 210.76C123.112 211.693 123.419 212.893 123.419 214.36C123.419 215.773 123.032 217.093 122.259 218.32C121.485 219.52 120.285 220.493 118.659 221.24C117.059 221.96 115.032 222.32 112.579 222.32ZM128.703 222V200.8H132.543V222H128.703ZM130.623 196.72C129.876 196.72 129.249 196.48 128.743 196C128.263 195.52 128.023 194.933 128.023 194.24C128.023 193.52 128.263 192.92 128.743 192.44C129.249 191.96 129.876 191.72 130.623 191.72C131.369 191.72 131.983 191.96 132.463 192.44C132.969 192.893 133.223 193.467 133.223 194.16C133.223 194.88 132.983 195.493 132.503 196C132.023 196.48 131.396 196.72 130.623 196.72ZM145.954 222.24C144.194 222.24 142.514 222 140.914 221.52C139.341 221.04 138.101 220.453 137.194 219.76L138.794 216.72C139.701 217.333 140.821 217.853 142.154 218.28C143.488 218.707 144.848 218.92 146.234 218.92C148.021 218.92 149.301 218.667 150.074 218.16C150.874 217.653 151.274 216.947 151.274 216.04C151.274 215.373 151.034 214.853 150.554 214.48C150.074 214.107 149.434 213.827 148.634 213.64C147.861 213.453 146.994 213.293 146.034 213.16C145.074 213 144.114 212.813 143.154 212.6C142.194 212.36 141.314 212.04 140.514 211.64C139.714 211.213 139.074 210.64 138.594 209.92C138.114 209.173 137.874 208.187 137.874 206.96C137.874 205.68 138.234 204.56 138.954 203.6C139.674 202.64 140.688 201.907 141.994 201.4C143.328 200.867 144.901 200.6 146.714 200.6C148.101 200.6 149.501 200.773 150.914 201.12C152.354 201.44 153.528 201.907 154.434 202.52L152.794 205.56C151.834 204.92 150.834 204.48 149.794 204.24C148.754 204 147.714 203.88 146.674 203.88C144.994 203.88 143.741 204.16 142.914 204.72C142.088 205.253 141.674 205.947 141.674 206.8C141.674 207.52 141.914 208.08 142.394 208.48C142.901 208.853 143.541 209.147 144.314 209.36C145.114 209.573 145.994 209.76 146.954 209.92C147.914 210.053 148.874 210.24 149.834 210.48C150.794 210.693 151.661 211 152.434 211.4C153.234 211.8 153.874 212.36 154.354 213.08C154.861 213.8 155.114 214.76 155.114 215.96C155.114 217.24 154.741 218.347 153.994 219.28C153.248 220.213 152.194 220.947 150.834 221.48C149.474 221.987 147.848 222.24 145.954 222.24ZM167.193 222.24C165.06 222.24 163.407 221.667 162.233 220.52C161.06 219.373 160.473 217.733 160.473 215.6V196.16H164.313V215.44C164.313 216.587 164.593 217.467 165.153 218.08C165.74 218.693 166.567 219 167.633 219C168.833 219 169.833 218.667 170.633 218L171.833 220.76C171.247 221.267 170.54 221.64 169.713 221.88C168.913 222.12 168.073 222.24 167.193 222.24ZM156.873 203.96V200.8H170.393V203.96H156.873ZM185.213 222.24C182.946 222.24 180.946 221.773 179.213 220.84C177.506 219.907 176.173 218.627 175.213 217C174.279 215.373 173.813 213.507 173.813 211.4C173.813 209.293 174.266 207.427 175.173 205.8C176.106 204.173 177.373 202.907 178.973 202C180.599 201.067 182.426 200.6 184.453 200.6C186.506 200.6 188.319 201.053 189.893 201.96C191.466 202.867 192.693 204.147 193.573 205.8C194.479 207.427 194.933 209.333 194.933 211.52C194.933 211.68 194.919 211.867 194.893 212.08C194.893 212.293 194.879 212.493 194.853 212.68H176.813V209.92H192.853L191.293 210.88C191.319 209.52 191.039 208.307 190.453 207.24C189.866 206.173 189.053 205.347 188.013 204.76C186.999 204.147 185.813 203.84 184.453 203.84C183.119 203.84 181.933 204.147 180.893 204.76C179.853 205.347 179.039 206.187 178.453 207.28C177.866 208.347 177.573 209.573 177.573 210.96V211.6C177.573 213.013 177.893 214.28 178.533 215.4C179.199 216.493 180.119 217.347 181.293 217.96C182.466 218.573 183.813 218.88 185.333 218.88C186.586 218.88 187.719 218.667 188.733 218.24C189.773 217.813 190.679 217.173 191.453 216.32L193.573 218.8C192.613 219.92 191.413 220.773 189.973 221.36C188.559 221.947 186.973 222.24 185.213 222.24ZM226.785 200.6C228.492 200.6 229.998 200.933 231.305 201.6C232.612 202.267 233.625 203.28 234.345 204.64C235.092 206 235.465 207.72 235.465 209.8V222H231.625V210.24C231.625 208.187 231.145 206.64 230.185 205.6C229.225 204.56 227.878 204.04 226.145 204.04C224.865 204.04 223.745 204.307 222.785 204.84C221.825 205.373 221.078 206.16 220.545 207.2C220.038 208.24 219.785 209.533 219.785 211.08V222H215.945V210.24C215.945 208.187 215.465 206.64 214.505 205.6C213.572 204.56 212.225 204.04 210.465 204.04C209.212 204.04 208.105 204.307 207.145 204.84C206.185 205.373 205.438 206.16 204.905 207.2C204.372 208.24 204.105 209.533 204.105 211.08V222H200.265V200.8H203.945V206.44L203.345 205C204.012 203.613 205.038 202.533 206.425 201.76C207.812 200.987 209.425 200.6 211.265 200.6C213.292 200.6 215.038 201.107 216.505 202.12C217.972 203.107 218.932 204.613 219.385 206.64L217.825 206C218.465 204.373 219.585 203.067 221.185 202.08C222.785 201.093 224.652 200.6 226.785 200.6ZM255.691 222V217.52L255.491 216.68V209.04C255.491 207.413 255.011 206.16 254.051 205.28C253.117 204.373 251.704 203.92 249.811 203.92C248.557 203.92 247.331 204.133 246.131 204.56C244.931 204.96 243.917 205.507 243.091 206.2L241.491 203.32C242.584 202.44 243.891 201.773 245.411 201.32C246.957 200.84 248.571 200.6 250.251 200.6C253.157 200.6 255.397 201.307 256.971 202.72C258.544 204.133 259.331 206.293 259.331 209.2V222H255.691ZM248.731 222.24C247.157 222.24 245.771 221.973 244.571 221.44C243.397 220.907 242.491 220.173 241.851 219.24C241.211 218.28 240.891 217.2 240.891 216C240.891 214.853 241.157 213.813 241.691 212.88C242.251 211.947 243.144 211.2 244.371 210.64C245.624 210.08 247.304 209.8 249.411 209.8H256.131V212.56H249.571C247.651 212.56 246.357 212.88 245.691 213.52C245.024 214.16 244.691 214.933 244.691 215.84C244.691 216.88 245.104 217.72 245.931 218.36C246.757 218.973 247.904 219.28 249.371 219.28C250.811 219.28 252.064 218.96 253.131 218.32C254.224 217.68 255.011 216.747 255.491 215.52L256.251 218.16C255.744 219.413 254.851 220.413 253.571 221.16C252.291 221.88 250.677 222.24 248.731 222.24ZM285.939 222.24C283.886 222.24 282.046 221.787 280.419 220.88C278.819 219.973 277.552 218.707 276.619 217.08C275.686 215.453 275.219 213.56 275.219 211.4C275.219 209.24 275.686 207.36 276.619 205.76C277.552 204.133 278.819 202.867 280.419 201.96C282.046 201.053 283.886 200.6 285.939 200.6C287.726 200.6 289.339 201 290.779 201.8C292.219 202.6 293.366 203.8 294.219 205.4C295.099 207 295.539 209 295.539 211.4C295.539 213.8 295.112 215.8 294.259 217.4C293.432 219 292.299 220.213 290.859 221.04C289.419 221.84 287.779 222.24 285.939 222.24ZM286.259 218.88C287.592 218.88 288.792 218.573 289.859 217.96C290.952 217.347 291.806 216.48 292.419 215.36C293.059 214.213 293.379 212.893 293.379 211.4C293.379 209.88 293.059 208.573 292.419 207.48C291.806 206.36 290.952 205.493 289.859 204.88C288.792 204.267 287.592 203.96 286.259 203.96C284.899 203.96 283.686 204.267 282.619 204.88C281.552 205.493 280.699 206.36 280.059 207.48C279.419 208.573 279.099 209.88 279.099 211.4C279.099 212.893 279.419 214.213 280.059 215.36C280.699 216.48 281.552 217.347 282.619 217.96C283.686 218.573 284.899 218.88 286.259 218.88ZM293.499 222V216.28L293.739 211.36L293.339 206.44V192.32H297.179V222H293.499ZM313.885 222.24C311.618 222.24 309.618 221.773 307.885 220.84C306.178 219.907 304.845 218.627 303.885 217C302.951 215.373 302.485 213.507 302.485 211.4C302.485 209.293 302.938 207.427 303.845 205.8C304.778 204.173 306.045 202.907 307.645 202C309.271 201.067 311.098 200.6 313.125 200.6C315.178 200.6 316.991 201.053 318.565 201.96C320.138 202.867 321.365 204.147 322.245 205.8C323.151 207.427 323.605 209.333 323.605 211.52C323.605 211.68 323.591 211.867 323.565 212.08C323.565 212.293 323.551 212.493 323.525 212.68H305.485V209.92H321.525L319.965 210.88C319.991 209.52 319.711 208.307 319.125 207.24C318.538 206.173 317.725 205.347 316.685 204.76C315.671 204.147 314.485 203.84 313.125 203.84C311.791 203.84 310.605 204.147 309.565 204.76C308.525 205.347 307.711 206.187 307.125 207.28C306.538 208.347 306.245 209.573 306.245 210.96V211.6C306.245 213.013 306.565 214.28 307.205 215.4C307.871 216.493 308.791 217.347 309.965 217.96C311.138 218.573 312.485 218.88 314.005 218.88C315.258 218.88 316.391 218.667 317.405 218.24C318.445 217.813 319.351 217.173 320.125 216.32L322.245 218.8C321.285 219.92 320.085 220.773 318.645 221.36C317.231 221.947 315.645 222.24 313.885 222.24ZM348.759 222.24C346.626 222.24 344.732 221.773 343.079 220.84C341.426 219.907 340.119 218.627 339.159 217C338.199 215.347 337.719 213.48 337.719 211.4C337.719 209.293 338.199 207.427 339.159 205.8C340.119 204.173 341.426 202.907 343.079 202C344.732 201.067 346.626 200.6 348.759 200.6C350.866 200.6 352.746 201.067 354.399 202C356.079 202.907 357.386 204.173 358.319 205.8C359.279 207.4 359.759 209.267 359.759 211.4C359.759 213.507 359.279 215.373 358.319 217C357.386 218.627 356.079 219.907 354.399 220.84C352.746 221.773 350.866 222.24 348.759 222.24ZM348.759 218.88C350.119 218.88 351.332 218.573 352.399 217.96C353.492 217.347 354.346 216.48 354.959 215.36C355.572 214.213 355.879 212.893 355.879 211.4C355.879 209.88 355.572 208.573 354.959 207.48C354.346 206.36 353.492 205.493 352.399 204.88C351.332 204.267 350.119 203.96 348.759 203.96C347.399 203.96 346.186 204.267 345.119 204.88C344.052 205.493 343.199 206.36 342.559 207.48C341.919 208.573 341.599 209.88 341.599 211.4C341.599 212.893 341.919 214.213 342.559 215.36C343.199 216.48 344.052 217.347 345.119 217.96C346.186 218.573 347.399 218.88 348.759 218.88ZM374.31 222.24C372.15 222.24 370.216 221.773 368.51 220.84C366.83 219.907 365.51 218.627 364.55 217C363.59 215.373 363.11 213.507 363.11 211.4C363.11 209.293 363.59 207.427 364.55 205.8C365.51 204.173 366.83 202.907 368.51 202C370.216 201.067 372.15 200.6 374.31 200.6C376.23 200.6 377.936 200.987 379.43 201.76C380.95 202.507 382.123 203.627 382.95 205.12L380.03 207C379.336 205.96 378.483 205.2 377.47 204.72C376.483 204.213 375.416 203.96 374.27 203.96C372.883 203.96 371.643 204.267 370.55 204.88C369.456 205.493 368.59 206.36 367.95 207.48C367.31 208.573 366.99 209.88 366.99 211.4C366.99 212.92 367.31 214.24 367.95 215.36C368.59 216.48 369.456 217.347 370.55 217.96C371.643 218.573 372.883 218.88 374.27 218.88C375.416 218.88 376.483 218.64 377.47 218.16C378.483 217.653 379.336 216.88 380.03 215.84L382.95 217.68C382.123 219.147 380.95 220.28 379.43 221.08C377.936 221.853 376.23 222.24 374.31 222.24ZM396.841 222.24C395.028 222.24 393.428 221.907 392.041 221.24C390.681 220.573 389.615 219.56 388.841 218.2C388.095 216.813 387.721 215.08 387.721 213V200.8H391.561V212.56C391.561 214.64 392.055 216.2 393.041 217.24C394.055 218.28 395.468 218.8 397.281 218.8C398.615 218.8 399.775 218.533 400.761 218C401.748 217.44 402.508 216.64 403.041 215.6C403.575 214.533 403.841 213.253 403.841 211.76V200.8H407.681V222H404.041V216.28L404.641 217.8C403.948 219.213 402.908 220.307 401.521 221.08C400.135 221.853 398.575 222.24 396.841 222.24ZM426.232 222.24C424.472 222.24 422.858 221.84 421.392 221.04C419.952 220.213 418.792 219 417.912 217.4C417.058 215.8 416.632 213.8 416.632 211.4C416.632 209 417.045 207 417.872 205.4C418.725 203.8 419.872 202.6 421.312 201.8C422.778 201 424.418 200.6 426.232 200.6C428.312 200.6 430.152 201.053 431.752 201.96C433.352 202.867 434.618 204.133 435.552 205.76C436.485 207.36 436.952 209.24 436.952 211.4C436.952 213.56 436.485 215.453 435.552 217.08C434.618 218.707 433.352 219.973 431.752 220.88C430.152 221.787 428.312 222.24 426.232 222.24ZM414.992 229.76V200.8H418.672V206.52L418.432 211.44L418.832 216.36V229.76H414.992ZM425.912 218.88C427.272 218.88 428.485 218.573 429.552 217.96C430.645 217.347 431.498 216.48 432.112 215.36C432.752 214.213 433.072 212.893 433.072 211.4C433.072 209.88 432.752 208.573 432.112 207.48C431.498 206.36 430.645 205.493 429.552 204.88C428.485 204.267 427.272 203.96 425.912 203.96C424.578 203.96 423.365 204.267 422.272 204.88C421.205 205.493 420.352 206.36 419.712 207.48C419.098 208.573 418.792 209.88 418.792 211.4C418.792 212.893 419.098 214.213 419.712 215.36C420.352 216.48 421.205 217.347 422.272 217.96C423.365 218.573 424.578 218.88 425.912 218.88ZM455.222 222V217.52L455.022 216.68V209.04C455.022 207.413 454.542 206.16 453.582 205.28C452.649 204.373 451.235 203.92 449.342 203.92C448.089 203.92 446.862 204.133 445.662 204.56C444.462 204.96 443.449 205.507 442.622 206.2L441.022 203.32C442.115 202.44 443.422 201.773 444.942 201.32C446.489 200.84 448.102 200.6 449.782 200.6C452.689 200.6 454.929 201.307 456.502 202.72C458.075 204.133 458.862 206.293 458.862 209.2V222H455.222ZM448.262 222.24C446.689 222.24 445.302 221.973 444.102 221.44C442.929 220.907 442.022 220.173 441.382 219.24C440.742 218.28 440.422 217.2 440.422 216C440.422 214.853 440.689 213.813 441.222 212.88C441.782 211.947 442.675 211.2 443.902 210.64C445.155 210.08 446.835 209.8 448.942 209.8H455.662V212.56H449.102C447.182 212.56 445.889 212.88 445.222 213.52C444.555 214.16 444.222 214.933 444.222 215.84C444.222 216.88 444.635 217.72 445.462 218.36C446.289 218.973 447.435 219.28 448.902 219.28C450.342 219.28 451.595 218.96 452.662 218.32C453.755 217.68 454.542 216.747 455.022 215.52L455.782 218.16C455.275 219.413 454.382 220.413 453.102 221.16C451.822 221.88 450.209 222.24 448.262 222.24ZM475.208 222.24C473.048 222.24 471.115 221.773 469.408 220.84C467.728 219.907 466.408 218.627 465.448 217C464.488 215.373 464.008 213.507 464.008 211.4C464.008 209.293 464.488 207.427 465.448 205.8C466.408 204.173 467.728 202.907 469.408 202C471.115 201.067 473.048 200.6 475.208 200.6C477.128 200.6 478.835 200.987 480.328 201.76C481.848 202.507 483.021 203.627 483.848 205.12L480.928 207C480.235 205.96 479.381 205.2 478.368 204.72C477.381 204.213 476.315 203.96 475.168 203.96C473.781 203.96 472.541 204.267 471.448 204.88C470.355 205.493 469.488 206.36 468.848 207.48C468.208 208.573 467.888 209.88 467.888 211.4C467.888 212.92 468.208 214.24 468.848 215.36C469.488 216.48 470.355 217.347 471.448 217.96C472.541 218.573 473.781 218.88 475.168 218.88C476.315 218.88 477.381 218.64 478.368 218.16C479.381 217.653 480.235 216.88 480.928 215.84L483.848 217.68C483.021 219.147 481.848 220.28 480.328 221.08C478.835 221.853 477.128 222.24 475.208 222.24ZM473.328 230.96C472.635 230.96 471.995 230.88 471.408 230.72C470.821 230.587 470.275 230.373 469.768 230.08L470.608 228.12C471.035 228.36 471.461 228.533 471.888 228.64C472.341 228.747 472.821 228.8 473.328 228.8C474.101 228.8 474.661 228.653 475.008 228.36C475.381 228.093 475.568 227.707 475.568 227.2C475.568 226.72 475.381 226.333 475.008 226.04C474.661 225.773 474.088 225.64 473.288 225.64H472.208L473.208 221.72H475.408L474.808 224C475.955 224.107 476.821 224.467 477.408 225.08C477.995 225.693 478.288 226.44 478.288 227.32C478.288 228.44 477.835 229.32 476.928 229.96C476.021 230.627 474.821 230.96 473.328 230.96ZM501.98 222V217.52L501.78 216.68V209.04C501.78 207.413 501.3 206.16 500.34 205.28C499.406 204.373 497.993 203.92 496.1 203.92C494.846 203.92 493.62 204.133 492.42 204.56C491.22 204.96 490.206 205.507 489.38 206.2L487.78 203.32C488.873 202.44 490.18 201.773 491.7 201.32C493.246 200.84 494.86 200.6 496.54 200.6C499.446 200.6 501.686 201.307 503.26 202.72C504.833 204.133 505.62 206.293 505.62 209.2V222H501.98ZM495.02 222.24C493.446 222.24 492.06 221.973 490.86 221.44C489.686 220.907 488.78 220.173 488.14 219.24C487.5 218.28 487.18 217.2 487.18 216C487.18 214.853 487.446 213.813 487.98 212.88C488.54 211.947 489.433 211.2 490.66 210.64C491.913 210.08 493.593 209.8 495.7 209.8H502.42V212.56H495.86C493.94 212.56 492.646 212.88 491.98 213.52C491.313 214.16 490.98 214.933 490.98 215.84C490.98 216.88 491.393 217.72 492.22 218.36C493.046 218.973 494.193 219.28 495.66 219.28C497.1 219.28 498.353 218.96 499.42 218.32C500.513 217.68 501.3 216.747 501.78 215.52L502.54 218.16C502.033 219.413 501.14 220.413 499.86 221.16C498.58 221.88 496.966 222.24 495.02 222.24ZM499.62 197.6C498.98 197.6 498.406 197.467 497.9 197.2C497.42 196.933 496.98 196.627 496.58 196.28C496.18 195.907 495.793 195.587 495.42 195.32C495.046 195.053 494.673 194.92 494.3 194.92C493.713 194.92 493.233 195.147 492.86 195.6C492.513 196.027 492.313 196.627 492.26 197.4H490.1C490.153 195.907 490.526 194.72 491.22 193.84C491.913 192.96 492.846 192.52 494.02 192.52C494.66 192.52 495.233 192.667 495.74 192.96C496.246 193.227 496.7 193.547 497.1 193.92C497.5 194.267 497.873 194.573 498.22 194.84C498.593 195.107 498.966 195.24 499.34 195.24C499.926 195.24 500.406 195.027 500.78 194.6C501.153 194.173 501.353 193.587 501.38 192.84H503.54C503.513 194.253 503.14 195.4 502.42 196.28C501.726 197.16 500.793 197.6 499.62 197.6ZM521.806 222.24C519.673 222.24 517.779 221.773 516.126 220.84C514.473 219.907 513.166 218.627 512.206 217C511.246 215.347 510.766 213.48 510.766 211.4C510.766 209.293 511.246 207.427 512.206 205.8C513.166 204.173 514.473 202.907 516.126 202C517.779 201.067 519.673 200.6 521.806 200.6C523.913 200.6 525.793 201.067 527.446 202C529.126 202.907 530.433 204.173 531.366 205.8C532.326 207.4 532.806 209.267 532.806 211.4C532.806 213.507 532.326 215.373 531.366 217C530.433 218.627 529.126 219.907 527.446 220.84C525.793 221.773 523.913 222.24 521.806 222.24ZM521.806 218.88C523.166 218.88 524.379 218.573 525.446 217.96C526.539 217.347 527.393 216.48 528.006 215.36C528.619 214.213 528.926 212.893 528.926 211.4C528.926 209.88 528.619 208.573 528.006 207.48C527.393 206.36 526.539 205.493 525.446 204.88C524.379 204.267 523.166 203.96 521.806 203.96C520.446 203.96 519.233 204.267 518.166 204.88C517.099 205.493 516.246 206.36 515.606 207.48C514.966 208.573 514.646 209.88 514.646 211.4C514.646 212.893 514.966 214.213 515.606 215.36C516.246 216.48 517.099 217.347 518.166 217.96C519.233 218.573 520.446 218.88 521.806 218.88ZM557.619 222.24C555.565 222.24 553.725 221.787 552.099 220.88C550.499 219.973 549.232 218.707 548.299 217.08C547.365 215.453 546.899 213.56 546.899 211.4C546.899 209.24 547.365 207.36 548.299 205.76C549.232 204.133 550.499 202.867 552.099 201.96C553.725 201.053 555.565 200.6 557.619 200.6C559.405 200.6 561.019 201 562.459 201.8C563.899 202.6 565.045 203.8 565.899 205.4C566.779 207 567.219 209 567.219 211.4C567.219 213.8 566.792 215.8 565.939 217.4C565.112 219 563.979 220.213 562.539 221.04C561.099 221.84 559.459 222.24 557.619 222.24ZM557.939 218.88C559.272 218.88 560.472 218.573 561.539 217.96C562.632 217.347 563.485 216.48 564.099 215.36C564.739 214.213 565.059 212.893 565.059 211.4C565.059 209.88 564.739 208.573 564.099 207.48C563.485 206.36 562.632 205.493 561.539 204.88C560.472 204.267 559.272 203.96 557.939 203.96C556.579 203.96 555.365 204.267 554.299 204.88C553.232 205.493 552.379 206.36 551.739 207.48C551.099 208.573 550.779 209.88 550.779 211.4C550.779 212.893 551.099 214.213 551.739 215.36C552.379 216.48 553.232 217.347 554.299 217.96C555.365 218.573 556.579 218.88 557.939 218.88ZM565.179 222V216.28L565.419 211.36L565.019 206.44V192.32H568.859V222H565.179ZM585.564 222.24C583.298 222.24 581.298 221.773 579.564 220.84C577.858 219.907 576.524 218.627 575.564 217C574.631 215.373 574.164 213.507 574.164 211.4C574.164 209.293 574.618 207.427 575.524 205.8C576.458 204.173 577.724 202.907 579.324 202C580.951 201.067 582.778 200.6 584.804 200.6C586.858 200.6 588.671 201.053 590.244 201.96C591.818 202.867 593.044 204.147 593.924 205.8C594.831 207.427 595.284 209.333 595.284 211.52C595.284 211.68 595.271 211.867 595.244 212.08C595.244 212.293 595.231 212.493 595.204 212.68H577.164V209.92H593.204L591.644 210.88C591.671 209.52 591.391 208.307 590.804 207.24C590.218 206.173 589.404 205.347 588.364 204.76C587.351 204.147 586.164 203.84 584.804 203.84C583.471 203.84 582.284 204.147 581.244 204.76C580.204 205.347 579.391 206.187 578.804 207.28C578.218 208.347 577.924 209.573 577.924 210.96V211.6C577.924 213.013 578.244 214.28 578.884 215.4C579.551 216.493 580.471 217.347 581.644 217.96C582.818 218.573 584.164 218.88 585.684 218.88C586.938 218.88 588.071 218.667 589.084 218.24C590.124 217.813 591.031 217.173 591.804 216.32L593.924 218.8C592.964 219.92 591.764 220.773 590.324 221.36C588.911 221.947 587.324 222.24 585.564 222.24ZM617.439 222.24C615.679 222.24 613.999 222 612.399 221.52C610.825 221.04 609.585 220.453 608.679 219.76L610.279 216.72C611.185 217.333 612.305 217.853 613.639 218.28C614.972 218.707 616.332 218.92 617.719 218.92C619.505 218.92 620.785 218.667 621.559 218.16C622.359 217.653 622.759 216.947 622.759 216.04C622.759 215.373 622.519 214.853 622.039 214.48C621.559 214.107 620.919 213.827 620.119 213.64C619.345 213.453 618.479 213.293 617.519 213.16C616.559 213 615.599 212.813 614.639 212.6C613.679 212.36 612.799 212.04 611.999 211.64C611.199 211.213 610.559 210.64 610.079 209.92C609.599 209.173 609.359 208.187 609.359 206.96C609.359 205.68 609.719 204.56 610.439 203.6C611.159 202.64 612.172 201.907 613.479 201.4C614.812 200.867 616.385 200.6 618.199 200.6C619.585 200.6 620.985 200.773 622.399 201.12C623.839 201.44 625.012 201.907 625.919 202.52L624.279 205.56C623.319 204.92 622.319 204.48 621.279 204.24C620.239 204 619.199 203.88 618.159 203.88C616.479 203.88 615.225 204.16 614.399 204.72C613.572 205.253 613.159 205.947 613.159 206.8C613.159 207.52 613.399 208.08 613.879 208.48C614.385 208.853 615.025 209.147 615.799 209.36C616.599 209.573 617.479 209.76 618.439 209.92C619.399 210.053 620.359 210.24 621.319 210.48C622.279 210.693 623.145 211 623.919 211.4C624.719 211.8 625.359 212.36 625.839 213.08C626.345 213.8 626.599 214.76 626.599 215.96C626.599 217.24 626.225 218.347 625.479 219.28C624.732 220.213 623.679 220.947 622.319 221.48C620.959 221.987 619.332 222.24 617.439 222.24ZM644.558 222V217.52L644.358 216.68V209.04C644.358 207.413 643.878 206.16 642.918 205.28C641.984 204.373 640.571 203.92 638.678 203.92C637.424 203.92 636.198 204.133 634.998 204.56C633.798 204.96 632.784 205.507 631.958 206.2L630.358 203.32C631.451 202.44 632.758 201.773 634.278 201.32C635.824 200.84 637.438 200.6 639.118 200.6C642.024 200.6 644.264 201.307 645.838 202.72C647.411 204.133 648.198 206.293 648.198 209.2V222H644.558ZM637.598 222.24C636.024 222.24 634.638 221.973 633.438 221.44C632.264 220.907 631.358 220.173 630.718 219.24C630.078 218.28 629.758 217.2 629.758 216C629.758 214.853 630.024 213.813 630.558 212.88C631.118 211.947 632.011 211.2 633.238 210.64C634.491 210.08 636.171 209.8 638.278 209.8H644.998V212.56H638.438C636.518 212.56 635.224 212.88 634.558 213.52C633.891 214.16 633.558 214.933 633.558 215.84C633.558 216.88 633.971 217.72 634.798 218.36C635.624 218.973 636.771 219.28 638.238 219.28C639.678 219.28 640.931 218.96 641.998 218.32C643.091 217.68 643.878 216.747 644.358 215.52L645.118 218.16C644.611 219.413 643.718 220.413 642.438 221.16C641.158 221.88 639.544 222.24 637.598 222.24ZM655.304 222V192.32H659.144V222H655.304ZM679.636 222V217.52L679.436 216.68V209.04C679.436 207.413 678.956 206.16 677.996 205.28C677.063 204.373 675.649 203.92 673.756 203.92C672.503 203.92 671.276 204.133 670.076 204.56C668.876 204.96 667.863 205.507 667.036 206.2L665.436 203.32C666.529 202.44 667.836 201.773 669.356 201.32C670.903 200.84 672.516 200.6 674.196 200.6C677.103 200.6 679.343 201.307 680.916 202.72C682.489 204.133 683.276 206.293 683.276 209.2V222H679.636ZM672.676 222.24C671.103 222.24 669.716 221.973 668.516 221.44C667.343 220.907 666.436 220.173 665.796 219.24C665.156 218.28 664.836 217.2 664.836 216C664.836 214.853 665.103 213.813 665.636 212.88C666.196 211.947 667.089 211.2 668.316 210.64C669.569 210.08 671.249 209.8 673.356 209.8H680.076V212.56H673.516C671.596 212.56 670.303 212.88 669.636 213.52C668.969 214.16 668.636 214.933 668.636 215.84C668.636 216.88 669.049 217.72 669.876 218.36C670.703 218.973 671.849 219.28 673.316 219.28C674.756 219.28 676.009 218.96 677.076 218.32C678.169 217.68 678.956 216.747 679.436 215.52L680.196 218.16C679.689 219.413 678.796 220.413 677.516 221.16C676.236 221.88 674.623 222.24 672.676 222.24ZM696.462 222.24C694.702 222.24 693.022 222 691.422 221.52C689.849 221.04 688.609 220.453 687.702 219.76L689.302 216.72C690.209 217.333 691.329 217.853 692.662 218.28C693.996 218.707 695.356 218.92 696.742 218.92C698.529 218.92 699.809 218.667 700.582 218.16C701.382 217.653 701.782 216.947 701.782 216.04C701.782 215.373 701.542 214.853 701.062 214.48C700.582 214.107 699.942 213.827 699.142 213.64C698.369 213.453 697.502 213.293 696.542 213.16C695.582 213 694.622 212.813 693.662 212.6C692.702 212.36 691.822 212.04 691.022 211.64C690.222 211.213 689.582 210.64 689.102 209.92C688.622 209.173 688.382 208.187 688.382 206.96C688.382 205.68 688.742 204.56 689.462 203.6C690.182 202.64 691.196 201.907 692.502 201.4C693.836 200.867 695.409 200.6 697.222 200.6C698.609 200.6 700.009 200.773 701.422 201.12C702.862 201.44 704.036 201.907 704.942 202.52L703.302 205.56C702.342 204.92 701.342 204.48 700.302 204.24C699.262 204 698.222 203.88 697.182 203.88C695.502 203.88 694.249 204.16 693.422 204.72C692.596 205.253 692.182 205.947 692.182 206.8C692.182 207.52 692.422 208.08 692.902 208.48C693.409 208.853 694.049 209.147 694.822 209.36C695.622 209.573 696.502 209.76 697.462 209.92C698.422 210.053 699.382 210.24 700.342 210.48C701.302 210.693 702.169 211 702.942 211.4C703.742 211.8 704.382 212.36 704.862 213.08C705.369 213.8 705.622 214.76 705.622 215.96C705.622 217.24 705.249 218.347 704.502 219.28C703.756 220.213 702.702 220.947 701.342 221.48C699.982 221.987 698.356 222.24 696.462 222.24Z" fill="black"/>
<path d="M14.1 145V40H57.3C66.6 40 74.55 41.5 81.15 44.5C87.85 47.5 93 51.8 96.6 57.4C100.2 63 102 69.65 102 77.35C102 85.05 100.2 91.7 96.6 97.3C93 102.9 87.85 107.2 81.15 110.2C74.55 113.2 66.6 114.7 57.3 114.7H24.9L33.6 105.55V145H14.1ZM33.6 107.65L24.9 98.2H56.4C65 98.2 71.45 96.4 75.75 92.8C80.15 89.1 82.35 83.95 82.35 77.35C82.35 70.65 80.15 65.5 75.75 61.9C71.45 58.3 65 56.5 56.4 56.5H24.9L33.6 46.9V107.65ZM173.638 146.5C165.438 146.5 157.888 145.15 150.988 142.45C144.088 139.75 138.088 136 132.988 131.2C127.888 126.3 123.938 120.6 121.138 114.1C118.338 107.5 116.938 100.3 116.938 92.5C116.938 84.7 118.338 77.55 121.138 71.05C123.938 64.45 127.888 58.75 132.988 53.95C138.088 49.05 144.088 45.25 150.988 42.55C157.888 39.85 165.388 38.5 173.488 38.5C181.688 38.5 189.188 39.85 195.988 42.55C202.888 45.25 208.888 49.05 213.988 53.95C219.088 58.75 223.038 64.45 225.838 71.05C228.638 77.55 230.038 84.7 230.038 92.5C230.038 100.3 228.638 107.5 225.838 114.1C223.038 120.7 219.088 126.4 213.988 131.2C208.888 136 202.888 139.75 195.988 142.45C189.188 145.15 181.738 146.5 173.638 146.5ZM173.488 129.4C178.788 129.4 183.688 128.5 188.188 126.7C192.688 124.9 196.588 122.35 199.888 119.05C203.188 115.65 205.738 111.75 207.538 107.35C209.438 102.85 210.388 97.9 210.388 92.5C210.388 87.1 209.438 82.2 207.538 77.8C205.738 73.3 203.188 69.4 199.888 66.1C196.588 62.7 192.688 60.1 188.188 58.3C183.688 56.5 178.788 55.6 173.488 55.6C168.188 55.6 163.288 56.5 158.788 58.3C154.388 60.1 150.488 62.7 147.088 66.1C143.788 69.4 141.188 73.3 139.288 77.8C137.488 82.2 136.588 87.1 136.588 92.5C136.588 97.8 137.488 102.7 139.288 107.2C141.188 111.7 143.788 115.65 147.088 119.05C150.388 122.35 154.288 124.9 158.788 126.7C163.288 128.5 168.188 129.4 173.488 129.4Z" fill="black"/>
<path d="M383.4 145V56.5H348.6V40H437.7V56.5H402.9V145H383.4ZM497.08 146.5C482.68 146.5 471.38 142.45 463.18 134.35C455.08 126.25 451.03 114.55 451.03 99.25V40H470.53V98.5C470.53 109.3 472.83 117.15 477.43 122.05C482.13 126.95 488.73 129.4 497.23 129.4C505.73 129.4 512.28 126.95 516.88 122.05C521.48 117.15 523.78 109.3 523.78 98.5V40H542.98V99.25C542.98 114.55 538.88 126.25 530.68 134.35C522.58 142.45 511.38 146.5 497.08 146.5ZM571.789 145V40H587.839L653.689 120.85H645.739V40H665.089V145H649.039L583.189 64.15H591.139V145H571.789ZM743.925 146.5C735.725 146.5 728.175 145.15 721.275 142.45C714.375 139.75 708.375 136 703.275 131.2C698.175 126.3 694.225 120.6 691.425 114.1C688.625 107.5 687.225 100.3 687.225 92.5C687.225 84.7 688.625 77.55 691.425 71.05C694.225 64.45 698.175 58.75 703.275 53.95C708.375 49.05 714.375 45.25 721.275 42.55C728.175 39.85 735.675 38.5 743.775 38.5C751.975 38.5 759.475 39.85 766.275 42.55C773.175 45.25 779.175 49.05 784.275 53.95C789.375 58.75 793.325 64.45 796.125 71.05C798.925 77.55 800.325 84.7 800.325 92.5C800.325 100.3 798.925 107.5 796.125 114.1C793.325 120.7 789.375 126.4 784.275 131.2C779.175 136 773.175 139.75 766.275 142.45C759.475 145.15 752.025 146.5 743.925 146.5ZM743.775 129.4C749.075 129.4 753.975 128.5 758.475 126.7C762.975 124.9 766.875 122.35 770.175 119.05C773.475 115.65 776.025 111.75 777.825 107.35C779.725 102.85 780.675 97.9 780.675 92.5C780.675 87.1 779.725 82.2 777.825 77.8C776.025 73.3 773.475 69.4 770.175 66.1C766.875 62.7 762.975 60.1 758.475 58.3C753.975 56.5 749.075 55.6 743.775 55.6C738.475 55.6 733.575 56.5 729.075 58.3C724.675 60.1 720.775 62.7 717.375 66.1C714.075 69.4 711.475 73.3 709.575 77.8C707.775 82.2 706.875 87.1 706.875 92.5C706.875 97.8 707.775 102.7 709.575 107.2C711.475 111.7 714.075 115.65 717.375 119.05C720.675 122.35 724.575 124.9 729.075 126.7C733.575 128.5 738.475 129.4 743.775 129.4Z" fill="black"/>
<path fill-rule="evenodd" clip-rule="evenodd" d="M247 38V144.5H338L311.5 110.5C318.667 106.833 333.5 95.2 335.5 78C338 56.5 318 38 305.5 38C302.839 38 298.609 38.0354 293.526 38.0779C279.503 38.1953 258.987 38.367 247 38ZM266.5 53.5V129H307L288.5 104C298 101.5 317.2 92.8 318 78C318.8 63.2 305.333 55.5 298.5 53.5H266.5Z" fill="black"/>
</svg>
